<svg width="20" height="20" viewBox="0 0 24 24" fill="white">
  <path d="M17.05 13.5c-.91 2.42-.5 4.25 1.09 5.54 1.27.96 3.27.76 4.27-.79.17-.28.3-.58.39-.89-.61-.46-1.7-1.12-1.87-2.6-.16-1.28.54-2.29 1.26-2.98-.49-.57-1.49-1.33-2.7-1.33-1.31 0-2.47.76-2.84 1.72-.26-.1-.53-.16-.8-.16-1.1 0-2.09.58-2.5 1.49zM12 0C5.373 0 0 5.373 0 12s5.373 12 12 12 12-5.373 12-12S18.627 0 12 0zm5.992 6.139c.264.168.49.423.636.703.156.308.242.692.242 1.084 0 .392-.086.776-.242 1.084-.146.28-.372.535-.636.703a1.909 1.909 0 01-.783.308c-.304 0-.567-.08-.783-.308-.264-.168-.49-.423-.636-.703a2.17 2.17 0 01-.242-1.084c0-.392.086-.776.242-1.084.146-.28.372-.535.636-.703.217-.228.479-.308.783-.308.304 0 .567.08.783.308z"/>
</svg>